# xmcd
#
# Track frame offsets:
#	182
#	15717
#	32797
#	50265
#	67952
#	83767
#	98200
#	111290
#	125467
#	139060
#
# Disc length: 2082 seconds
#
# Revision: 1
# Processed by: cddbd v1.5.2PL0 Copyright (c) Steve Scherf et al.
# Submitted via: audiograbber 1.83.01
#
DISCID=7f08200a
DTITLE=Angela Novotny - Meine schönsten Lieder
DYEAR=1995
DGENRE=Folklore
TTITLE0=Der Wandervogel
TTITLE1=Sehnsuchtswalzer
TTITLE2=Köhlerliesel
TTITLE3=Träume der Berge
TTITLE4=Lederhosenpolka
TTITLE5=Der Zar und das Mädchen
TTITLE6=Du hast heut Geburtstag
TTITLE7=Tief im Böhmerwald
TTITLE8=Rennsteiglied
TTITLE9=Herzen
EXTD=
EXTT0=
EXTT1=
EXTT2=
EXTT3=
EXTT4=
EXTT5=
EXTT6=
EXTT7=
EXTT8=
EXTT9=
PLAYORDER=
